<svg width="20" height="20" viewBox="0 0 20 20" fill="none" xmlns="http://www.w3.org/2000/svg">
<path d="M19 10C19 8.69922 18.1562 7.57422 16.9609 7.11719C17.4883 5.99219 17.2773 4.58594 16.3633 3.63672C15.4141 2.72266 14.0078 2.51172 12.8828 3.03906C12.4258 1.84375 11.3008 1 10 1C8.66406 1 7.53906 1.84375 7.08203 3.03906C5.95703 2.51172 4.55078 2.72266 3.63672 3.63672C2.6875 4.58594 2.47656 5.99219 3.00391 7.11719C1.80859 7.57422 1 8.69922 1 10C1 11.3359 1.80859 12.4609 3.00391 12.918C2.47656 14.043 2.6875 15.4492 3.63672 16.3633C4.55078 17.3125 5.95703 17.5234 7.08203 16.9961C7.53906 18.1914 8.66406 19 10 19C11.3008 19 12.4258 18.1914 12.8828 16.9961C14.043 17.5234 15.4141 17.3125 16.3633 16.3633C17.2773 15.4492 17.4883 14.043 16.9609 12.918C18.1562 12.4609 19 11.3359 19 10ZM13.9023 8.45312L9.29688 13.0234C9.12109 13.1992 8.875 13.1641 8.73438 13.0234L6.0625 10.3516C5.92188 10.2109 5.92188 9.96484 6.0625 9.78906L6.97656 8.875C7.15234 8.73438 7.39844 8.73438 7.53906 8.91016L9.01562 10.3867L12.4258 7.01172C12.6016 6.83594 12.8477 6.83594 12.9883 7.01172L13.9023 7.92578C14.043 8.06641 14.043 8.3125 13.9023 8.45312Z" fill="#5B6DD3"/>
<path fill-rule="evenodd" clip-rule="evenodd" d="M16.3633 3.63672C17.1707 4.47524 17.4295 5.67042 17.1154 6.71331C17.0739 6.85098 17.0224 6.986 16.9609 7.11719C17.1111 7.17462 17.2558 7.2426 17.3939 7.32015C18.355 7.85974 19 8.86268 19 10C19 11.1684 18.3546 12.1754 17.3932 12.7154C17.2553 12.7928 17.1109 12.8606 16.9609 12.918C17.0225 13.0492 17.074 13.1844 17.1154 13.3221C17.4295 14.3645 17.1707 15.5559 16.3633 16.3633C15.5121 17.2144 14.3218 17.472 13.2485 17.1359C13.1248 17.0972 13.0027 17.0506 12.8828 16.9961C12.8355 17.1199 12.781 17.2395 12.7199 17.3545C12.1909 18.3502 11.1661 19 10 19C8.82858 19 7.81934 18.3783 7.28042 17.4193C7.20473 17.2846 7.13831 17.1433 7.08203 16.9961C6.95097 17.0575 6.8161 17.1089 6.67863 17.1503C5.63607 17.4643 4.4443 17.2019 3.63672 16.3633C2.79808 15.5557 2.53573 14.3639 2.84966 13.3214C2.89106 13.1839 2.94247 13.049 3.00391 12.918C2.85671 12.8617 2.71537 12.7953 2.58069 12.7196C1.6217 12.1807 1 11.1714 1 10C1 8.85969 1.6214 7.85446 2.57998 7.3159C2.71488 7.24011 2.85645 7.17357 3.00391 7.11719C2.94251 6.98621 2.89112 6.85143 2.84974 6.71399C2.53569 5.67094 2.79801 4.47543 3.63672 3.63672C4.44412 2.82932 5.63554 2.57052 6.67794 2.88456C6.81565 2.92604 6.95075 2.97753 7.08203 3.03906C7.13936 2.88913 7.2072 2.74472 7.28464 2.60682C7.82461 1.64535 8.83164 1 10 1C11.1373 1 12.1403 1.64502 12.6798 2.60607C12.7574 2.7442 12.8254 2.88886 12.8828 3.03906C13.014 2.97757 13.149 2.92611 13.2867 2.88464C14.3296 2.57048 15.5248 2.82925 16.3633 3.63672ZM13.3771 1.83277C14.6632 1.57791 16.0547 1.95126 17.0569 2.9164L17.0705 2.92949L17.0836 2.94308C18.0487 3.94534 18.4221 5.3368 18.1672 6.6229C19.2647 7.35825 20 8.59049 20 10C20 11.4337 19.2677 12.6739 18.1671 13.4122C18.4215 14.6965 18.051 16.0897 17.0704 17.0704C16.059 18.0818 14.6769 18.4582 13.3772 18.1993C12.6363 19.2965 11.3974 20 10 20C8.57951 20 7.33334 19.3006 6.58936 18.2016C5.30608 18.4552 3.91179 18.081 2.92951 17.0705C1.91896 16.0882 1.54481 14.6939 1.7984 13.4106C0.699423 12.6667 0 11.4205 0 10C0 8.60368 0.702432 7.36549 1.79824 6.62448C1.54307 5.33372 1.9246 3.93462 2.92961 2.92961C3.91026 1.94897 5.30348 1.5785 6.58779 1.83292C7.32611 0.732255 8.56627 0 10 0C11.4095 0 12.6417 0.735281 13.3771 1.83277ZM9.29688 13.0234L13.9023 8.45312C14.043 8.3125 14.043 8.06641 13.9023 7.92578L12.9883 7.01172C12.8477 6.83594 12.6016 6.83594 12.4258 7.01172L9.01562 10.3867L7.53906 8.91016C7.39844 8.73438 7.15234 8.73438 6.97656 8.875L6.0625 9.78906C5.92188 9.96484 5.92188 10.2109 6.0625 10.3516L8.73438 13.0234C8.875 13.1641 9.12109 13.1992 9.29688 13.0234Z" fill="white"/>
</svg>
